<svg data-name="Layer 1" xmlns="http://www.w3.org/2000/svg" viewBox="0 0 2807.77 2799.25"><path d="M2440.6 458.38c-139.58-157.84-268.59-235.24-341-273.14-11.39-6-22.85 7.7-15.08 17.95 42.23 55.67 105.07 161.47 125.14 316.8 31.18 241.3-92.07 394.7-92.07 394.7s-74.25 96.81-163.34 87.9c-85.4-8.54-112.82-48.46-142.4-100.14a12.1 12.1 0 01.71-13.1c76.77-105.52 161.14-193.84 130.54-439.15-44.55-264.32-258.4-207.89-258.4-207.89S1375.84 289.83 1372.87 765c0 382 201.32 550.58 267.69 595.78a12 12 0 01-2.5 21.15c-90.61 33.72-417.77 178-514.66 532.4-109.06 398.93 73.1 542.7 85.47 551.91a10.43 10.43 0 011.21 1c11.93 12 215.34 206.94 627.7-35.85 16-9.56 53.38-32.74 87-60l29-25.79a55.39 55.39 0 018.22-7.06c6.94-5.18 23.93-15.41 40.53-6.26 21.53 11.88 1.48 65.34-8.17 78.7-8.94 12.37-124.81 238.62-464.61 364.9-13.23 4.92-8.78 24.6 5.26 23.24 99.9-9.68 270.35-37.93 452.67-120.11 286.59-129.19 584.32-419.49 713.51-738 89.74-221.24 137.52-460.78 84.46-755.88-72.46-354.62-230.16-592.75-345.05-726.75z" fill="#094b89"/><path d="M1355.17 25.22c13.66-5.63 9.06-26-5.7-25.2-221.6 12.43-806.55 103.71-1157.88 703.69C76.57 905.6-62.22 1261.2 30.14 1706.25c106.59 486 453.68 769 613.45 876.57 12.38 8.33 26.83-7.23 17.6-19-92.39-117.49-236.67-383.22-93.14-786.14 131.46-369 412.63-492.46 480.83-517.54a13.11 13.11 0 006.82-18.92c-40.7-69.71-213.06-393.89-110.47-722.71 87.28-317.94 293.78-445.4 409.94-493.29z" fill="#388ce0"/></svg>